<svg width="104" height="100" viewBox="0 0 104 100" fill="none" xmlns="http://www.w3.org/2000/svg">
<circle cx="52" cy="50" r="50" fill="#5CC6F8"/>
<rect x="19" y="17" width="66" height="66" rx="24" fill="#B1DE80"/>
<ellipse cx="96.5299" cy="56.5697" rx="5" ry="4.92155" transform="rotate(114.004 96.5299 56.5697)" fill="#B1DE80"/>
<ellipse cx="17.6807" cy="73.4181" rx="5" ry="9.46529" transform="rotate(114.004 17.6807 73.4181)" fill="#B1DE80"/>
<ellipse cx="52.5884" cy="5.96349" rx="5.50906" ry="18.7281" transform="rotate(91.3954 52.5884 5.96349)" fill="#B1DE80"/>
<path d="M52.804 99.8237C44.6702 99.7616 38.0171 97.7612 38.0382 94.9999C38.0593 92.2385 44.6702 90.0504 52.804 90.1125C60.9379 90.1746 67.5146 92.4635 67.4935 95.2248C67.4724 97.9861 60.9379 99.8858 52.804 99.8237Z" fill="#B1DE80"/>
<ellipse cx="11.4767" cy="38.2577" rx="12.4897" ry="7.0014" transform="rotate(114.004 11.4767 38.2577)" fill="#B1DE80"/>
<ellipse cx="87.1757" cy="23.7479" rx="5" ry="7.81779" transform="rotate(114.004 87.1757 23.7479)" fill="#B1DE80"/>
<path d="M41.1934 37.1157H37.9268V46H35.7295V37.1157H32.5068V35.3359H41.1934V37.1157ZM46.2837 40.0601C45.9956 40.021 45.7417 40.0015 45.522 40.0015C44.7212 40.0015 44.1963 40.2725 43.9473 40.8145V46H41.8306V38.0752H43.8301L43.8887 39.02C44.3135 38.2925 44.9019 37.9287 45.6538 37.9287C45.8882 37.9287 46.1079 37.9604 46.313 38.0239L46.2837 40.0601ZM51.6816 46C51.584 45.8096 51.5132 45.5728 51.4692 45.2896C50.9565 45.8608 50.29 46.1465 49.4697 46.1465C48.6934 46.1465 48.0488 45.9219 47.5361 45.4727C47.0283 45.0234 46.7744 44.457 46.7744 43.7734C46.7744 42.9336 47.0845 42.2891 47.7046 41.8398C48.3296 41.3906 49.2305 41.1636 50.4072 41.1587H51.3813V40.7046C51.3813 40.3384 51.2861 40.0454 51.0957 39.8257C50.9102 39.606 50.6147 39.4961 50.2095 39.4961C49.853 39.4961 49.5723 39.5815 49.3672 39.7524C49.167 39.9233 49.0669 40.1577 49.0669 40.4556H46.9502C46.9502 39.9966 47.0918 39.5718 47.375 39.1812C47.6582 38.7905 48.0586 38.4854 48.5762 38.2656C49.0938 38.041 49.6748 37.9287 50.3193 37.9287C51.2959 37.9287 52.0698 38.1753 52.6411 38.6685C53.2173 39.1567 53.5054 39.8452 53.5054 40.7339V44.1689C53.5103 44.9209 53.6152 45.4897 53.8203 45.8755V46H51.6816ZM49.9312 44.5278C50.2437 44.5278 50.5317 44.4595 50.7954 44.3228C51.0591 44.1812 51.2544 43.9932 51.3813 43.7588V42.3965H50.5903C49.5308 42.3965 48.9668 42.7627 48.8984 43.4951L48.8911 43.6196C48.8911 43.8833 48.9839 44.1006 49.1694 44.2715C49.355 44.4424 49.6089 44.5278 49.9312 44.5278ZM57.9805 43.4146L59.4526 38.0752H61.6646L58.9912 46H56.9697L54.2964 38.0752H56.5083L57.9805 43.4146ZM66.147 46.1465C64.9849 46.1465 64.0376 45.79 63.3052 45.0771C62.5776 44.3643 62.2139 43.4146 62.2139 42.228V42.0229C62.2139 41.2271 62.3677 40.5166 62.6753 39.8916C62.9829 39.2617 63.4175 38.7783 63.979 38.4414C64.5454 38.0996 65.1899 37.9287 65.9126 37.9287C66.9966 37.9287 67.8486 38.2705 68.4688 38.9541C69.0938 39.6377 69.4062 40.6069 69.4062 41.8618V42.7261H64.3599C64.4282 43.2437 64.6333 43.6587 64.9751 43.9712C65.3218 44.2837 65.7588 44.4399 66.2861 44.4399C67.1016 44.4399 67.7388 44.1445 68.1978 43.5537L69.2378 44.7183C68.9204 45.1675 68.4907 45.519 67.9487 45.7729C67.4067 46.022 66.8062 46.1465 66.147 46.1465ZM65.9053 39.6426C65.4854 39.6426 65.1436 39.7842 64.8799 40.0674C64.6211 40.3506 64.4551 40.7559 64.3818 41.2832H67.3262V41.1147C67.3164 40.646 67.1895 40.2847 66.9453 40.0308C66.7012 39.772 66.3545 39.6426 65.9053 39.6426ZM72.8486 46H70.7246V34.75H72.8486V46ZM36.2861 55.1157H33.0195V64H30.8223V55.1157H27.5996V53.3359H36.2861V55.1157ZM41.3765 58.0601C41.0884 58.021 40.8345 58.0015 40.6147 58.0015C39.814 58.0015 39.2891 58.2725 39.04 58.8145V64H36.9233V56.0752H38.9229L38.9814 57.02C39.4062 56.2925 39.9946 55.9287 40.7466 55.9287C40.981 55.9287 41.2007 55.9604 41.4058 56.0239L41.3765 58.0601ZM46.7744 64C46.6768 63.8096 46.606 63.5728 46.562 63.2896C46.0493 63.8608 45.3828 64.1465 44.5625 64.1465C43.7861 64.1465 43.1416 63.9219 42.6289 63.4727C42.1211 63.0234 41.8672 62.457 41.8672 61.7734C41.8672 60.9336 42.1772 60.2891 42.7974 59.8398C43.4224 59.3906 44.3232 59.1636 45.5 59.1587H46.4741V58.7046C46.4741 58.3384 46.3789 58.0454 46.1885 57.8257C46.0029 57.606 45.7075 57.4961 45.3022 57.4961C44.9458 57.4961 44.665 57.5815 44.46 57.7524C44.2598 57.9233 44.1597 58.1577 44.1597 58.4556H42.043C42.043 57.9966 42.1846 57.5718 42.4678 57.1812C42.751 56.7905 43.1514 56.4854 43.6689 56.2656C44.1865 56.041 44.7676 55.9287 45.4121 55.9287C46.3887 55.9287 47.1626 56.1753 47.7339 56.6685C48.3101 57.1567 48.5981 57.8452 48.5981 58.7339V62.1689C48.603 62.9209 48.708 63.4897 48.9131 63.8755V64H46.7744ZM45.0239 62.5278C45.3364 62.5278 45.6245 62.4595 45.8882 62.3228C46.1519 62.1812 46.3472 61.9932 46.4741 61.7588V60.3965H45.6831C44.6235 60.3965 44.0596 60.7627 43.9912 61.4951L43.9839 61.6196C43.9839 61.8833 44.0767 62.1006 44.2622 62.2715C44.4478 62.4424 44.7017 62.5278 45.0239 62.5278ZM53.52 62.4399C53.9106 62.4399 54.228 62.3325 54.4722 62.1177C54.7163 61.9028 54.8433 61.6172 54.853 61.2607H56.8379C56.833 61.7979 56.6865 62.291 56.3984 62.7402C56.1104 63.1846 55.7148 63.5312 55.2119 63.7803C54.7139 64.0244 54.1621 64.1465 53.5566 64.1465C52.4238 64.1465 51.5303 63.7876 50.876 63.0698C50.2217 62.3472 49.8945 61.3511 49.8945 60.0815V59.9424C49.8945 58.7217 50.2192 57.7476 50.8687 57.02C51.5181 56.2925 52.4092 55.9287 53.542 55.9287C54.5332 55.9287 55.3267 56.2119 55.9224 56.7783C56.5229 57.3398 56.8281 58.0894 56.8379 59.0269H54.853C54.8433 58.6167 54.7163 58.2847 54.4722 58.0308C54.228 57.772 53.9058 57.6426 53.5054 57.6426C53.0122 57.6426 52.6387 57.8232 52.3848 58.1846C52.1357 58.541 52.0112 59.1221 52.0112 59.9277V60.1475C52.0112 60.9629 52.1357 61.5488 52.3848 61.9053C52.6338 62.2617 53.0122 62.4399 53.52 62.4399ZM60.9248 60.8213L60.1631 61.583V64H58.0464V52.75H60.1631V58.9829L60.5732 58.4556L62.6021 56.0752H65.1436L62.2798 59.3784L65.3926 64H62.9609L60.9248 60.8213ZM69.5601 64.1465C68.3979 64.1465 67.4507 63.79 66.7183 63.0771C65.9907 62.3643 65.627 61.4146 65.627 60.228V60.0229C65.627 59.2271 65.7808 58.5166 66.0884 57.8916C66.396 57.2617 66.8306 56.7783 67.3921 56.4414C67.9585 56.0996 68.603 55.9287 69.3257 55.9287C70.4097 55.9287 71.2617 56.2705 71.8818 56.9541C72.5068 57.6377 72.8193 58.6069 72.8193 59.8618V60.7261H67.7729C67.8413 61.2437 68.0464 61.6587 68.3882 61.9712C68.7349 62.2837 69.1719 62.4399 69.6992 62.4399C70.5146 62.4399 71.1519 62.1445 71.6108 61.5537L72.6509 62.7183C72.3335 63.1675 71.9038 63.519 71.3618 63.7729C70.8198 64.022 70.2192 64.1465 69.5601 64.1465ZM69.3184 57.6426C68.8984 57.6426 68.5566 57.7842 68.293 58.0674C68.0342 58.3506 67.8682 58.7559 67.7949 59.2832H70.7393V59.1147C70.7295 58.646 70.6025 58.2847 70.3584 58.0308C70.1143 57.772 69.7676 57.6426 69.3184 57.6426ZM78.481 58.0601C78.1929 58.021 77.939 58.0015 77.7192 58.0015C76.9185 58.0015 76.3936 58.2725 76.1445 58.8145V64H74.0278V56.0752H76.0273L76.0859 57.02C76.5107 56.2925 77.0991 55.9287 77.8511 55.9287C78.0854 55.9287 78.3052 55.9604 78.5103 56.0239L78.481 58.0601Z" fill="black"/>
</svg>
